<?xml version="1.0" encoding="UTF-8" standalone="no"?>
<!-- Created with Inkscape (http://www.inkscape.org/) -->

<svg
   width="200"
   height="200"
   viewBox="0 0 52.916665 52.916668"
   version="1.1"
   id="svg3966"
   inkscape:version="1.2.2 (732a01da63, 2022-12-09)"
   sodipodi:docname="favicon.svg"
   xmlns:inkscape="http://www.inkscape.org/namespaces/inkscape"
   xmlns:sodipodi="http://sodipodi.sourceforge.net/DTD/sodipodi-0.dtd"
   xmlns="http://www.w3.org/2000/svg"
   xmlns:svg="http://www.w3.org/2000/svg">
  <sodipodi:namedview
     id="namedview3968"
     pagecolor="#ffffff"
     bordercolor="#666666"
     borderopacity="1.0"
     inkscape:pageshadow="2"
     inkscape:pageopacity="0.0"
     inkscape:pagecheckerboard="0"
     inkscape:document-units="px"
     showgrid="false"
     units="px"
     inkscape:zoom="2.0938813"
     inkscape:cx="160.94513"
     inkscape:cy="93.128488"
     inkscape:window-width="2560"
     inkscape:window-height="1017"
     inkscape:window-x="-8"
     inkscape:window-y="-8"
     inkscape:window-maximized="1"
     inkscape:current-layer="layer1"
     inkscape:showpageshadow="2"
     inkscape:deskcolor="#d1d1d1" />
  <defs
     id="defs3963" />
  <g
     inkscape:label="Layer 1"
     inkscape:groupmode="layer"
     id="layer1">
    <path
       style="font-variation-settings:normal;fill:#ff8080;fill-opacity:1;stroke:none;stroke-width:2.4742;stroke-linecap:round;stroke-linejoin:round;stroke-miterlimit:4;stroke-dasharray:none;stroke-dashoffset:0;stroke-opacity:1;stop-color:#000000"
       d="M 16.540908,3.4252231 C 15.026605,3.4043539 13.50827,3.5435908 12.243289,3.80713 3.1460213,5.7024144 -1.442926,16.81443 2.1784522,25.005164 c 2.7197624,6.151635 8.8217028,10.750554 13.4874618,15.41632 2.372968,2.372961 7.364932,9.568834 11.138036,9.044821 3.435127,-0.477188 7.102242,-5.869523 9.417056,-8.184331 C 43.827689,33.675291 57.622385,22.599008 49.500597,10.44451 45.671042,4.7135 38.594307,2.2738225 31.942724,3.9521515 29.95733,4.453013 28.03318,6.1421551 25.94346,6.0453676 24.113868,5.9606516 22.524396,4.5092294 20.804687,3.9956639 19.561761,3.6245177 18.055212,3.4458902 16.540908,3.4252231 Z m 9.600757,8.5323969 c 5.319821,0.373885 8.831844,8.041219 3.301766,11.988855 l 3.872207,10.325885 c -4.777579,-0.0782 -9.551193,-0.171584 -14.328615,0 L 22.85923,23.946475 c 0,0 -1.29984,-0.887275 -1.880513,-1.411594 -3.211253,-3.293777 -0.998762,-10.607789 5.162948,-10.577261 z"
       id="rect1420" />
  </g>
</svg>
