<?xml version="1.0" encoding="UTF-8" standalone="no"?>
<!-- Created with Inkscape (http://www.inkscape.org/) -->

<svg
   width="100"
   height="125"
   viewBox="0 0 26.458333 33.072918"
   version="1.1"
   id="svg3966"
   inkscape:version="1.2.2 (732a01da63, 2022-12-09)"
   sodipodi:docname="logo.svg"
   inkscape:export-xdpi="1966.08"
   inkscape:export-ydpi="1966.08"
   xml:space="preserve"
   xmlns:inkscape="http://www.inkscape.org/namespaces/inkscape"
   xmlns:sodipodi="http://sodipodi.sourceforge.net/DTD/sodipodi-0.dtd"
   xmlns="http://www.w3.org/2000/svg"
   xmlns:svg="http://www.w3.org/2000/svg"><sodipodi:namedview
     id="namedview3968"
     pagecolor="#ffffff"
     bordercolor="#666666"
     borderopacity="1.0"
     inkscape:pageshadow="2"
     inkscape:pageopacity="0.0"
     inkscape:pagecheckerboard="0"
     inkscape:document-units="px"
     showgrid="false"
     units="px"
     inkscape:zoom="2.9611954"
     inkscape:cx="90.166288"
     inkscape:cy="94.218705"
     inkscape:window-width="2560"
     inkscape:window-height="1017"
     inkscape:window-x="-8"
     inkscape:window-y="-8"
     inkscape:window-maximized="1"
     inkscape:current-layer="layer1"
     inkscape:showpageshadow="2"
     inkscape:deskcolor="#d1d1d1"
     showguides="true" /><defs
     id="defs3963" /><g
     inkscape:label="Layer 1"
     inkscape:groupmode="layer"
     id="layer1"><g
       id="g2297"
       transform="translate(0,0.42726627)"><path
         style="font-variation-settings:normal;opacity:1;fill:#ff8080;fill-opacity:1;stroke:none;stroke-width:1.25752;stroke-linecap:round;stroke-linejoin:round;stroke-miterlimit:4;stroke-dasharray:none;stroke-dashoffset:0;stroke-opacity:1;stop-color:#000000;stop-opacity:1"
         d="M 8.1886179,1.2314136 C 7.418971,1.2209006 6.6472752,1.2915672 6.0043453,1.4255168 1.3806424,2.3888006 -0.95169831,8.0365021 0.88887288,12.199459 c 1.38232542,3.12658 4.48364622,5.463989 6.85502782,7.835371 1.2060644,1.206064 3.7432403,4.863379 5.6609273,4.597046 1.745909,-0.242518 3.609728,-2.983194 4.786235,-4.1597 3.86611,-3.866109 10.87729,-9.495651 6.749376,-15.6731994 C 22.994063,1.886183 19.397298,0.6462103 16.016618,1.4992266 15.007538,1.7538042 14.029585,2.6123002 12.967481,2.5631075 12.037588,2.5200544 11.229735,1.7823614 10.355691,1.5213395 9.7239708,1.3327164 8.9582646,1.241921 8.1886179,1.2314136 Z M 13.068219,5.568018 c 2.703809,0.1900312 4.488802,4.0869669 1.67813,6.093358 l 1.968057,5.248151 c -2.428213,-0.03975 -4.854414,-0.08721 -7.2825468,0 l 1.9680568,-5.248151 c 0,0 -0.660647,-0.450958 -0.955773,-0.717444 C 8.8120167,9.2698625 9.9365202,5.5525042 13.068219,5.568018 Z"
         id="rect1420" /><path
         id="path4191"
         style="font-variation-settings:normal;opacity:1;fill:#89abdf;fill-opacity:1;stroke:none;stroke-width:0.338667;stroke-linecap:round;stroke-linejoin:round;stroke-miterlimit:4;stroke-dasharray:none;stroke-dashoffset:0;stroke-opacity:1;stop-color:#000000;stop-opacity:1"
         d="m 14.366325,25.008843 v 1.523903 c -1.618713,-0.435295 -2.438739,1.757632 -1.439867,2.902233 0.502017,0.575218 1.052093,0.03625 1.602646,0.04235 0.241981,0.0027 0.532636,0.170127 0.774855,0.221009 l 0.0033,-1.289661 -0.0033,-2.110173 -0.08469,-1.133498 z m 0,2.227956 v 0.703391 c 0,0.152645 0.01698,0.317026 -0.0033,0.468486 -0.0442,0.330798 -0.326129,0.636775 -0.641853,0.312986 -0.58502,-0.599957 -0.05687,-1.470054 0.64516,-1.484863 z m -3.673116,-0.848966 c -0.187985,0.0057 -0.375578,0.05013 -0.547891,0.138958 -0.9645281,0.497256 -0.9972321,2.411625 -0.117125,2.995532 0.572006,0.37949 1.411665,0.15919 1.993053,-0.05823 l -0.234241,-0.703391 c -0.669197,0.250258 -0.958227,0.248576 -1.406782,-0.352026 0.39193,0 1.263202,0.165442 1.582795,-0.0847 0.277745,-0.217372 0.176138,-0.807837 0.06816,-1.090487 -0.202504,-0.530457 -0.774016,-0.862637 -1.337969,-0.845658 z m 0.137635,0.809264 c 0.01178,-8.69e-4 0.02344,-6.33e-4 0.03507,0 0.164182,0.0089 0.309162,0.168606 0.334822,0.508188 h -0.820513 c 0.0835,-0.313883 0.273843,-0.495147 0.450621,-0.508188 z m 5.293628,-0.781473 v 4.572373 c 1.00192,-0.0042 0.938296,-0.557447 0.938296,-1.406782 1.620474,0.435764 2.446247,-1.61271 1.488172,-2.810256 -0.47892,-0.598714 -1.004798,-0.214859 -1.605293,-0.205128 -0.268126,0.0043 -0.55223,-0.120815 -0.821175,-0.150207 z m 1.33598,0.841688 c 0.01544,-9.48e-4 0.03033,-3.72e-4 0.045,6.62e-4 0.566861,0.03997 0.529492,1.523894 0.01324,1.668816 -0.644462,0.180899 -0.630732,-1.456008 -0.208437,-1.631761 0.05378,-0.02238 0.103872,-0.03487 0.150206,-0.03772 z M 4.8801422,26.423564 c -0.015449,-8.73e-4 -0.03052,-6.33e-4 -0.045658,6.62e-4 -0.1100927,0.0094 -0.2099778,0.07834 -0.2772538,0.238875 -0.096102,0.229319 -0.03904,0.564635 -0.03904,0.80794 0,0.586135 -0.1122503,1.299887 0.012574,1.872621 0.070916,0.325373 0.4873139,0.480913 0.7688979,0.269976 0.2112858,-0.158283 0.1556306,-0.506859 0.156162,-0.735814 0.00157,-0.676807 -0.1178418,-1.378364 0.7033916,-1.523904 l 0.117125,2.344417 c 0.995826,0 0.938296,-0.397182 0.938296,-1.289661 0,-0.273107 -0.08652,-0.976675 0.351364,-0.976675 0.437895,0 0.352027,0.703568 0.352027,0.976675 0,0.882995 0.05232,1.357976 1.055418,1.172539 -0.07972,-0.75905 0.08777,-1.87576 -0.176017,-2.579321 -0.147604,-0.393605 -0.585839,-0.626246 -0.996526,-0.527378 -0.288876,0.06955 -0.558718,0.276042 -0.820513,0.410257 -0.303496,-0.72559 -1.039491,-0.360755 -1.5245656,0 C 5.3720166,26.6844 5.1118701,26.436666 4.8801422,26.423564 Z m 14.7275388,0.0397 c -0.129258,0.0022 -0.273333,0.02607 -0.434741,0.06948 l 0.690158,1.452441 -0.807279,1.59603 c 0.667674,0.244067 1.081094,-0.04143 1.289661,-0.703391 h 0.234242 c 0.281257,0.709075 0.67404,0.900422 1.406783,0.703391 l -0.807278,-1.569562 0.807278,-1.478908 c -0.680572,-0.07149 -1.006059,-0.119638 -1.28966,0.58627 h -0.234244 c -0.210325,-0.470358 -0.467149,-0.662279 -0.85492,-0.655749 z" /></g></g></svg>
