<?xml version="1.0" encoding="UTF-8" standalone="no"?>
<!-- Created with Inkscape (http://www.inkscape.org/) -->

<svg
   width="100"
   height="36"
   viewBox="0 0 26.458333 9.5250005"
   version="1.1"
   id="svg3966"
   inkscape:version="1.2.2 (732a01da63, 2022-12-09)"
   sodipodi:docname="medpx-logo.svg"
   inkscape:export-xdpi="1966.08"
   inkscape:export-ydpi="1966.08"
   xml:space="preserve"
   xmlns:inkscape="http://www.inkscape.org/namespaces/inkscape"
   xmlns:sodipodi="http://sodipodi.sourceforge.net/DTD/sodipodi-0.dtd"
   xmlns="http://www.w3.org/2000/svg"
   xmlns:svg="http://www.w3.org/2000/svg"><sodipodi:namedview
     id="namedview3968"
     pagecolor="#ffffff"
     bordercolor="#666666"
     borderopacity="1.0"
     inkscape:pageshadow="2"
     inkscape:pageopacity="0.0"
     inkscape:pagecheckerboard="0"
     inkscape:document-units="px"
     showgrid="false"
     units="px"
     inkscape:zoom="16.751051"
     inkscape:cx="54.802531"
     inkscape:cy="13.730482"
     inkscape:window-width="2560"
     inkscape:window-height="1017"
     inkscape:window-x="-8"
     inkscape:window-y="-8"
     inkscape:window-maximized="1"
     inkscape:current-layer="layer1"
     inkscape:showpageshadow="2"
     inkscape:deskcolor="#d1d1d1"
     showguides="true" /><defs
     id="defs3963" /><g
     inkscape:label="Layer 1"
     inkscape:groupmode="layer"
     id="layer1"><path
       id="path4191"
       style="font-variation-settings:normal;opacity:1;fill:#89abdf;fill-opacity:1;stroke:none;stroke-width:0.338667;stroke-linecap:round;stroke-linejoin:round;stroke-miterlimit:4;stroke-dasharray:none;stroke-dashoffset:0;stroke-opacity:1;stop-color:#000000;stop-opacity:1"
       d="m 18.516744,1.8671474 v 1.5239035 c -1.618713,-0.4352953 -2.438739,1.7576317 -1.439867,2.9022323 0.502017,0.5752188 1.052093,0.036251 1.602646,0.042349 0.241981,0.00269 0.532636,0.170127 0.774855,0.2210091 l 0.0033,-1.2896605 -0.0033,-2.110173 -0.08469,-1.1334984 z m 0,2.2279562 v 0.7033907 c 0,0.1526449 0.01698,0.317026 -0.0033,0.4684863 -0.0442,0.3307981 -0.326129,0.6367755 -0.641853,0.3129858 -0.58502,-0.5999568 -0.05687,-1.4700542 0.64516,-1.4848629 z M 14.843628,3.2461378 c -0.187985,0.00566 -0.375578,0.050127 -0.547891,0.1389577 -0.964529,0.4972558 -0.997233,2.4116251 -0.117125,2.9955326 0.572006,0.3794893 1.411665,0.1591891 1.993053,-0.05823 l -0.234241,-0.703391 c -0.669197,0.2502574 -0.958227,0.2485755 -1.406782,-0.3520263 0.39193,0 1.263202,0.1654422 1.582795,-0.084698 0.277745,-0.217372 0.176138,-0.8078367 0.06816,-1.0904875 C 15.979093,3.5613382 15.407581,3.2291587 14.843628,3.2461378 Z m 0.137635,0.8092638 c 0.01178,-8.694e-4 0.02344,-6.331e-4 0.03507,0 0.164182,0.00894 0.309162,0.1686065 0.334822,0.5081884 h -0.820513 c 0.0835,-0.313883 0.273843,-0.4951472 0.450621,-0.5081884 z m 5.293628,-0.7814728 v 4.5723724 c 1.00192,-0.00421 0.938296,-0.5574467 0.938296,-1.406782 1.620474,0.4357643 2.446247,-1.61271 1.488172,-2.8102555 -0.47892,-0.5987139 -1.004798,-0.2148594 -1.605293,-0.2051278 -0.268126,0.00434 -0.55223,-0.1208153 -0.821175,-0.1502071 z m 1.33598,0.8416878 c 0.01544,-9.484e-4 0.03033,-3.724e-4 0.045,6.616e-4 0.566861,0.039975 0.529492,1.5238949 0.01324,1.6688167 -0.644462,0.1808991 -0.630732,-1.4560087 -0.208437,-1.6317613 0.05378,-0.022385 0.103872,-0.034872 0.150206,-0.037718 z M 9.0305603,3.2818688 c -0.015449,-8.735e-4 -0.03052,-6.335e-4 -0.045658,6.617e-4 -0.1100927,0.00942 -0.2099778,0.078342 -0.2772538,0.238875 -0.096102,0.2293188 -0.03904,0.5646347 -0.03904,0.8079401 0,0.5861346 -0.1122503,1.2998873 0.012574,1.8726214 0.070916,0.3253729 0.4873139,0.4809123 0.7688979,0.2699761 C 9.6613662,6.3136594 9.605711,5.9650841 9.6062424,5.7361287 9.6078136,5.059322 9.4884006,4.3577649 10.309634,4.2122251 l 0.117125,2.3444162 c 0.995826,0 0.938296,-0.3971817 0.938296,-1.2896605 0,-0.2731073 -0.08652,-0.9766747 0.351364,-0.9766747 0.437895,0 0.352027,0.7035674 0.352027,0.9766747 0,0.8829946 0.05232,1.3579754 1.055418,1.1725389 -0.07972,-0.7590497 0.08777,-1.87576 -0.176017,-2.5793209 -0.147604,-0.3936054 -0.585839,-0.6262457 -0.996526,-0.5273777 -0.288876,0.069546 -0.558718,0.2760415 -0.820513,0.4102561 -0.303496,-0.7255896 -1.039491,-0.3607548 -1.5245656,0 C 9.5224347,3.5427046 9.2622882,3.2949706 9.0305603,3.2818688 Z M 23.7581,3.3215708 c -0.129258,0.00218 -0.273333,0.026074 -0.434741,0.069479 l 0.690158,1.4524413 -0.807279,1.5960293 c 0.667674,0.2440676 1.081094,-0.041426 1.289661,-0.703391 h 0.234242 c 0.281257,0.7090757 0.67404,0.9004222 1.406783,0.703391 L 25.329646,4.8699586 26.136924,3.3910509 C 25.456352,3.3195588 25.130865,3.2714124 24.847264,3.9773204 H 24.61302 C 24.402695,3.5069624 24.145871,3.3150417 23.7581,3.3215721 Z" /><path
       style="font-variation-settings:normal;opacity:1;fill:#ff8080;fill-opacity:1;stroke:none;stroke-width:0.379384;stroke-linecap:round;stroke-linejoin:round;stroke-miterlimit:4;stroke-dasharray:none;stroke-dashoffset:0;stroke-opacity:1;stop-color:#000000;stop-opacity:1"
       d="M 2.7139761,1.2306971 C 2.4817793,1.2275254 2.2489644,1.248845 2.0549972,1.2892566 0.66006021,1.5798722 -0.04358973,3.283742 0.51169699,4.5396753 0.92873434,5.4829414 1.8643799,6.1881204 2.5798082,6.9035489 2.9436689,7.2674094 3.7091161,8.3707943 4.287668,8.2904436 4.8143958,8.2172778 5.3766964,7.390436 5.7316397,7.0354928 6.8980165,5.8691165 9.0132378,4.1707253 7.7678768,2.3070045 7.1806694,1.4282362 6.095552,1.0541456 5.0756259,1.3114943 4.7711939,1.3882985 4.4761527,1.6473004 4.1557239,1.6324593 3.8751818,1.6194705 3.6314586,1.396914 3.367766,1.3181656 3.1771807,1.2612594 2.9461728,1.2338671 2.7139761,1.2306971 Z M 4.1861156,2.5390186 C 5.0018347,2.5963496 5.540354,3.7720263 4.6923951,4.3773397 L 5.2861432,5.960668 c -0.7325738,-0.011992 -1.4645407,-0.02631 -2.1970904,0 L 3.6828011,4.3773397 c 0,0 -0.1993125,-0.1360507 -0.2883497,-0.2164475 C 2.9020509,3.6558377 3.2413053,2.5343382 4.1861156,2.5390186 Z"
       id="rect1420" /></g></svg>
