<?xml version="1.0" encoding="UTF-8" standalone="no"?>
<!-- Created with Inkscape (http://www.inkscape.org/) -->

<svg
   width="120"
   height="36"
   viewBox="0 0 31.75 9.5250005"
   version="1.1"
   id="svg3966"
   inkscape:version="1.2.2 (732a01da63, 2022-12-09)"
   sodipodi:docname="medpx-logo.svg"
   inkscape:export-filename="C:\Users\av1ct\Downloads\metamob-logo.png"
   inkscape:export-xdpi="1966.08"
   inkscape:export-ydpi="1966.08"
   xml:space="preserve"
   xmlns:inkscape="http://www.inkscape.org/namespaces/inkscape"
   xmlns:sodipodi="http://sodipodi.sourceforge.net/DTD/sodipodi-0.dtd"
   xmlns="http://www.w3.org/2000/svg"
   xmlns:svg="http://www.w3.org/2000/svg"><sodipodi:namedview
     id="namedview3968"
     pagecolor="#ffffff"
     bordercolor="#666666"
     borderopacity="1.0"
     inkscape:pageshadow="2"
     inkscape:pageopacity="0.0"
     inkscape:pagecheckerboard="0"
     inkscape:document-units="px"
     showgrid="false"
     units="px"
     inkscape:zoom="16.751051"
     inkscape:cx="58.563491"
     inkscape:cy="18.327209"
     inkscape:window-width="2560"
     inkscape:window-height="1017"
     inkscape:window-x="-8"
     inkscape:window-y="-8"
     inkscape:window-maximized="1"
     inkscape:current-layer="layer1"
     inkscape:showpageshadow="2"
     inkscape:deskcolor="#d1d1d1"
     showguides="true" /><defs
     id="defs3963" /><g
     inkscape:label="Layer 1"
     inkscape:groupmode="layer"
     id="layer1"><g
       id="g4175"
       transform="matrix(0.02237498,0,0,0.02237498,7.4626585,22.390127)" /><g
       id="g4177"
       transform="matrix(0.02237498,0,0,0.02237498,7.4626585,22.390127)" /><g
       id="g4179"
       transform="matrix(0.02237498,0,0,0.02237498,7.4626585,22.390127)" /><g
       id="g4181"
       transform="matrix(0.02237498,0,0,0.02237498,7.4626585,22.390127)" /><g
       id="g4183"
       transform="matrix(0.02237498,0,0,0.02237498,7.4626585,22.390127)" /><g
       id="g4185"
       transform="matrix(0.02237498,0,0,0.02237498,7.4626585,22.390127)" /><g
       id="g4187"
       transform="matrix(0.02237498,0,0,0.02237498,7.4626585,22.390127)" /><g
       id="g4189"
       transform="matrix(0.02237498,0,0,0.02237498,7.4626585,22.390127)" /><g
       id="g4191"
       transform="matrix(0.02237498,0,0,0.02237498,7.4626585,22.390127)" /><g
       id="g4193"
       transform="matrix(0.02237498,0,0,0.02237498,7.4626585,22.390127)" /><g
       id="g4195"
       transform="matrix(0.02237498,0,0,0.02237498,7.4626585,22.390127)" /><g
       id="g4197"
       transform="matrix(0.02237498,0,0,0.02237498,7.4626585,22.390127)" /><g
       id="g4199"
       transform="matrix(0.02237498,0,0,0.02237498,7.4626585,22.390127)" /><g
       id="g4201"
       transform="matrix(0.02237498,0,0,0.02237498,7.4626585,22.390127)" /><g
       id="g4203"
       transform="matrix(0.02237498,0,0,0.02237498,7.4626585,22.390127)" /><g
       id="g14629"
       transform="matrix(1.1031085,0,0,1.1031085,-2.9010797,-0.15231795)"
       style="stroke-width:0.95941003;stroke-dasharray:none"><path
         style="fill:#1a1a1a;stroke:#1a1a1a;stroke-width:0.95941003;stroke-linecap:round;stroke-linejoin:round;stroke-dasharray:none"
         d="m 23.518586,2.0068247 c -0.697713,-0.00137 -0.784449,0.013102 -0.848849,0.1334491 -0.04506,0.08422 -0.07152,0.9463587 -0.07152,2.3236724 0,1.3773145 0.02634,2.2394494 0.07152,2.3236733 0.03944,0.07366 0.1268,0.1348221 0.193981,0.1348221 0.06722,0 0.15929,-0.038223 0.204997,-0.083924 0.05699,-0.057139 0.08394,-0.4027898 0.08394,-1.1074938 V 4.7060824 h 0.196723 c 0.472373,0.017031 0.807163,-0.023376 1.169408,-0.1059382 0.142298,-0.059453 0.333875,-0.1761523 0.425112,-0.2600191 C 25.035139,4.2562625 25.16664,4.061837 25.236931,3.9095097 25.307215,3.7571791 25.3654,3.5156131 25.366245,3.3715845 25.367093,3.2275574 25.319257,2.9939843 25.260326,2.8529212 25.201376,2.7118583 25.084182,2.521787 25.000313,2.4305592 24.916435,2.3393302 24.723432,2.2064487 24.571092,2.1361449 24.3548,2.0363277 24.125018,2.0080114 23.518625,2.006821 Z m -0.365953,0.4842709 h 0.451251 c 0.248753,0 0.555346,0.04242 0.681002,0.094928 0.12568,0.052509 0.295782,0.1812066 0.378342,0.2861596 0.09655,0.1228023 0.151315,0.288525 0.151315,0.4650101 0,0.1508357 -0.05125,0.3594248 -0.112813,0.4636339 -0.06156,0.1042095 -0.178816,0.2320521 -0.260011,0.2834084 -0.08125,0.051354 -0.403978,0.1068889 -0.718154,0.1238217 l -0.570936,0.030263 V 3.3647089 Z"
         id="path6957" /><path
         style="fill:#ffffff;stroke-width:0.95941003;stroke-dasharray:none"
         d="m 23.518586,2.0068247 c -0.697713,-0.00137 -0.784449,0.013102 -0.848849,0.1334491 -0.04506,0.08422 -0.07152,0.9463587 -0.07152,2.3236724 0,1.3773145 0.02634,2.2394494 0.07152,2.3236733 0.03944,0.07366 0.1268,0.1348221 0.193981,0.1348221 0.06722,0 0.15929,-0.038223 0.204997,-0.083924 0.05699,-0.057139 0.08394,-0.4027898 0.08394,-1.1074938 V 4.7060824 h 0.196723 c 0.472373,0.017031 0.807163,-0.023376 1.169408,-0.1059382 0.142298,-0.059453 0.333875,-0.1761523 0.425112,-0.2600191 C 25.035139,4.2562625 25.16664,4.061837 25.236931,3.9095097 25.307215,3.7571791 25.3654,3.5156131 25.366245,3.3715845 25.367093,3.2275574 25.319257,2.9939843 25.260326,2.8529212 25.201376,2.7118583 25.084182,2.521787 25.000313,2.4305592 24.916435,2.3393302 24.723432,2.2064487 24.571092,2.1361449 24.3548,2.0363277 24.125018,2.0080114 23.518625,2.006821 Z m -0.365953,0.4842709 h 0.451251 c 0.248753,0 0.555346,0.04242 0.681002,0.094928 0.12568,0.052509 0.295782,0.1812066 0.378342,0.2861596 0.09655,0.1228023 0.151315,0.288525 0.151315,0.4650101 0,0.1508357 -0.05125,0.3594248 -0.112813,0.4636339 -0.06156,0.1042095 -0.178816,0.2320521 -0.260011,0.2834084 -0.08125,0.051354 -0.403978,0.1068889 -0.718154,0.1238217 l -0.570936,0.030263 V 3.3647089 Z"
         id="path6947" /></g><g
       id="g14633"
       transform="translate(0.2981263)"
       style="stroke-width:1.05833336;stroke-dasharray:none"><path
         style="fill:#1a1a1a;stroke:#1a1a1a;stroke-width:1.05833336;stroke-linecap:round;stroke-linejoin:round;stroke-dasharray:none"
         d="m 26.023861,4.5671325 c -0.05233,0 -0.301735,0.2652072 -0.554436,0.5888286 l -0.45951,0.588826 -0.374205,-0.4801436 c -0.0073,-0.00974 -0.01434,-0.017856 -0.02192,-0.027507 -0.09136,-0.06768 -0.183059,-0.27052 -0.25366,-0.3211786 -0.16153,-0.1159289 -0.451032,-0.086978 -0.409006,0.1923387 0.01788,0.1179483 0.162551,0.2924759 0.278828,0.4700295 l 0.45814,0.5888298 -0.491152,0.6424839 c -0.270102,0.3531221 -0.491146,0.6727948 -0.491146,0.7098961 0,0.037103 0.03954,0.1055551 0.08663,0.1527077 0.04716,0.047166 0.147484,0.077009 0.222881,0.06604 0.07541,-0.010981 0.315773,-0.2539519 0.535173,-0.5393021 0.219415,-0.28535 0.422916,-0.5266463 0.452627,-0.53655 0.02972,-0.00988 0.241015,0.2310732 0.469137,0.535174 0.298074,0.3973591 0.457983,0.5535473 0.568194,0.5544348 0.08435,6.787e-4 0.186182,-0.059779 0.225625,-0.1334491 0.05995,-0.1120021 -4.05e-4,-0.2284557 -0.365955,-0.7098957 -0.240407,-0.316669 -0.461628,-0.6150908 -0.491123,-0.6644971 -0.03445,-0.057729 0.09356,-0.2804943 0.357697,-0.6232231 0.226073,-0.2933294 0.447386,-0.6020938 0.491152,-0.685133 0.06382,-0.1210009 0.05822,-0.1729328 -0.02886,-0.2600191 -0.05978,-0.059768 -0.152651,-0.1086863 -0.204996,-0.1086863 z"
         id="path6961" /><path
         style="fill:#ffffff;stroke-width:1.05833336;stroke-dasharray:none"
         d="m 26.023861,4.5671325 c -0.05233,0 -0.301735,0.2652072 -0.554436,0.5888286 l -0.45951,0.588826 -0.374205,-0.4801436 c -0.0073,-0.00974 -0.01434,-0.017856 -0.02192,-0.027507 -0.09136,-0.06768 -0.183059,-0.27052 -0.25366,-0.3211786 -0.16153,-0.1159289 -0.451032,-0.086978 -0.409006,0.1923387 0.01788,0.1179483 0.162551,0.2924759 0.278828,0.4700295 l 0.45814,0.5888298 -0.491152,0.6424839 c -0.270102,0.3531221 -0.491146,0.6727948 -0.491146,0.7098961 0,0.037103 0.03954,0.1055551 0.08663,0.1527077 0.04716,0.047166 0.147484,0.077009 0.222881,0.06604 0.07541,-0.010981 0.315773,-0.2539519 0.535173,-0.5393021 0.219415,-0.28535 0.422916,-0.5266463 0.452627,-0.53655 0.02972,-0.00988 0.241015,0.2310732 0.469137,0.535174 0.298074,0.3973591 0.457983,0.5535473 0.568194,0.5544348 0.08435,6.787e-4 0.186182,-0.059779 0.225625,-0.1334491 0.05995,-0.1120021 -4.05e-4,-0.2284557 -0.365955,-0.7098957 -0.240407,-0.316669 -0.461628,-0.6150908 -0.491123,-0.6644971 -0.03445,-0.057729 0.09356,-0.2804943 0.357697,-0.6232231 0.226073,-0.2933294 0.447386,-0.6020938 0.491152,-0.685133 0.06382,-0.1210009 0.05822,-0.1729328 -0.02886,-0.2600191 -0.05978,-0.059768 -0.152651,-0.1086863 -0.204996,-0.1086863 z"
         id="path6951" /></g><g
       id="g6975"
       transform="matrix(0.7127168,0.19097189,-0.19097189,0.7127168,9.7179318,-3.6159207)"
       style="stroke-width:1.43433;stroke-dasharray:none"><path
         style="fill:#1a1a1a;stroke:#1a1a1a;stroke-width:1.43433;stroke-linecap:round;stroke-linejoin:round;stroke-dasharray:none"
         d="m 28.041702,6.9858015 c -0.01116,5.817e-4 -0.02228,0.00241 -0.03221,0.00565 -0.05441,0.017264 -0.07213,0.053117 -0.07213,0.1449764 0,0.096129 -0.01746,0.1287643 -0.08405,0.1540796 -0.04642,0.017659 -0.09246,0.052962 -0.101553,0.078441 -0.0091,0.025494 -0.002,0.073924 0.0154,0.1078589 0.02362,0.045918 0.07562,0.061629 0.203107,0.061629 0.123626,0 0.177149,-0.015782 0.192599,-0.056025 0.01185,-0.03066 0.021,-0.1396618 0.021,-0.242326 0,-0.1201819 -0.01819,-0.2016725 -0.05113,-0.229019 -0.02112,-0.017518 -0.05737,-0.026961 -0.09105,-0.025211 z"
         id="path6963" /><path
         style="fill:#1a1a1a;stroke:#1a1a1a;stroke-width:1.43433;stroke-linecap:round;stroke-linejoin:round;stroke-dasharray:none"
         d="m 29.156681,2.4425447 c -0.05569,-10e-4 -0.107926,0.00402 -0.155482,0.014708 -0.0799,0.017952 -0.215017,0.07389 -0.300455,0.1239637 -0.09148,0.053616 -0.199105,0.1599059 -0.261935,0.2591343 -0.05868,0.092673 -0.454845,0.7712037 -0.880358,1.5078825 -0.425512,0.7366787 -0.800087,1.3905115 -0.832032,1.4525536 -0.03195,0.062041 -0.05814,0.1202961 -0.05814,0.129566 0,0.00932 0.02707,0.043886 0.06023,0.077044 0.05686,0.056858 0.03434,0.1122065 -0.40411,0.9805084 l -0.465041,0.9202782 -0.04131,0.5161683 c -0.02285,0.2836486 -0.03166,0.5415182 -0.0196,0.5728973 0.012,0.031382 0.05368,0.05673 0.09246,0.05673 0.03876,0 0.258461,-0.1341983 0.488154,-0.2983544 0.229693,-0.1641611 0.442666,-0.3268387 0.473445,-0.3613885 0.03077,-0.034556 0.287667,-0.4196529 0.570796,-0.8558439 0.489517,-0.7541635 0.520258,-0.7928112 0.624722,-0.7928112 0.107593,0 0.126592,-0.029516 0.932186,-1.4245383 0.452398,-0.7834067 0.834927,-1.4366225 0.850241,-1.4518531 0.0153,-0.015231 0.0634,-0.00138 0.106452,0.031517 l 0.07774,0.060231 -0.371193,0.643634 c -0.236075,0.4091898 -0.367169,0.6727053 -0.359986,0.7227748 0.0067,0.047827 0.03937,0.082657 0.08334,0.088946 0.03984,0.00571 0.09702,-0.017748 0.126759,-0.052527 0.02974,-0.03478 0.231173,-0.3703762 0.447532,-0.7451868 C 30.157456,4.2437683 30.334,3.9145813 30.334,3.886699 30.334,3.858816 30.25869,3.788222 30.166615,3.7298175 L 29.999231,3.6233567 V 3.3341069 c 0,-0.2540892 -0.01171,-0.3105232 -0.09875,-0.4587379 C 29.845881,2.782467 29.737231,2.6605903 29.65956,2.6043284 29.5819,2.5480674 29.434748,2.4847829 29.33249,2.4635556 29.27163,2.4509226 29.212394,2.4435476 29.156698,2.4425446 Z m 0.01121,0.2745434 c 0.07847,-0.00181 0.139238,0.017465 0.240925,0.067935 0.09225,0.045787 0.189938,0.1233708 0.217113,0.1729899 0.04752,0.086804 0.01419,0.1510141 -0.874755,1.692078 -0.508148,0.8809217 -0.935359,1.6130449 -0.948991,1.6269433 -0.0137,0.013975 -0.191077,-0.071511 -0.394306,-0.1897981 -0.203227,-0.1182906 -0.37465,-0.2201997 -0.381699,-0.2262171 -0.0071,-0.00607 0.362739,-0.6613285 0.822227,-1.4567564 0.532741,-0.9222323 0.878904,-1.4841426 0.954595,-1.5506045 0.0761,-0.066816 0.175668,-0.1128148 0.278045,-0.1281671 0.03228,-0.00484 0.06071,-0.00779 0.08684,-0.0084 z M 27.028276,6.196493 27.22718,6.3085442 c 0.109476,0.061742 0.258574,0.1495528 0.331271,0.1954023 0.07269,0.045849 0.132364,0.091738 0.132364,0.1015489 0,0.00974 -0.219292,0.356616 -0.487452,0.7710996 L 26.715912,8.1301866 26.463081,7.9901155 C 26.32414,7.9130575 26.21025,7.8346963 26.21025,7.8157247 c 0,-0.018971 0.184079,-0.391276 0.409011,-0.8271295 z m -0.874753,1.9589158 c 0.01576,-0.00325 0.04274,0.0096 0.09315,0.035712 0.05771,0.029855 0.104358,0.062999 0.104358,0.073543 0,0.010583 -0.04735,0.088097 -0.105754,0.1729891 -0.0584,0.084893 -0.119857,0.1633636 -0.136571,0.1736908 -0.01672,0.010306 -0.02382,-0.056745 -0.0154,-0.1484771 0.0084,-0.091739 0.02257,-0.2026366 0.0315,-0.2465283 0.0079,-0.038339 0.01299,-0.057621 0.02871,-0.060937 z"
         id="path6959" /><path
         style="fill:#ffffff;stroke-width:1.43433;stroke-dasharray:none"
         d="m 28.041702,6.9858015 c -0.01116,5.817e-4 -0.02228,0.00241 -0.03221,0.00565 -0.05441,0.017264 -0.07213,0.053117 -0.07213,0.1449764 0,0.096129 -0.01746,0.1287643 -0.08405,0.1540796 -0.04642,0.017659 -0.09246,0.052962 -0.101553,0.078441 -0.0091,0.025494 -0.002,0.073924 0.0154,0.1078589 0.02362,0.045918 0.07562,0.061629 0.203107,0.061629 0.123626,0 0.177149,-0.015782 0.192599,-0.056025 0.01185,-0.03066 0.021,-0.1396618 0.021,-0.242326 0,-0.1201819 -0.01819,-0.2016725 -0.05113,-0.229019 -0.02112,-0.017518 -0.05737,-0.026961 -0.09105,-0.025211 z"
         id="path6953" /><path
         style="fill:#ffffff;stroke-width:1.43433;stroke-dasharray:none"
         d="m 29.156681,2.4425447 c -0.05569,-10e-4 -0.107926,0.00402 -0.155482,0.014708 -0.0799,0.017952 -0.215017,0.07389 -0.300455,0.1239637 -0.09148,0.053616 -0.199105,0.1599059 -0.261935,0.2591343 -0.05868,0.092673 -0.454845,0.7712037 -0.880358,1.5078825 -0.425512,0.7366787 -0.800087,1.3905115 -0.832032,1.4525536 -0.03195,0.062041 -0.05814,0.1202961 -0.05814,0.129566 0,0.00932 0.02707,0.043886 0.06023,0.077044 0.05686,0.056858 0.03434,0.1122065 -0.40411,0.9805084 l -0.465041,0.9202782 -0.04131,0.5161683 c -0.02285,0.2836486 -0.03166,0.5415182 -0.0196,0.5728973 0.012,0.031382 0.05368,0.05673 0.09246,0.05673 0.03876,0 0.258461,-0.1341983 0.488154,-0.2983544 0.229693,-0.1641611 0.442666,-0.3268387 0.473445,-0.3613885 0.03077,-0.034556 0.287667,-0.4196529 0.570796,-0.8558439 0.489517,-0.7541635 0.520258,-0.7928112 0.624722,-0.7928112 0.107593,0 0.126592,-0.029516 0.932186,-1.4245383 0.452398,-0.7834067 0.834927,-1.4366225 0.850241,-1.4518531 0.0153,-0.015231 0.0634,-0.00138 0.106452,0.031517 l 0.07774,0.060231 -0.371193,0.643634 c -0.236075,0.4091898 -0.367169,0.6727053 -0.359986,0.7227748 0.0067,0.047827 0.03937,0.082657 0.08334,0.088946 0.03984,0.00571 0.09702,-0.017748 0.126759,-0.052527 0.02974,-0.03478 0.231173,-0.3703762 0.447532,-0.7451868 C 30.157456,4.2437683 30.334,3.9145813 30.334,3.886699 30.334,3.858816 30.25869,3.788222 30.166615,3.7298175 L 29.999231,3.6233567 V 3.3341069 c 0,-0.2540892 -0.01171,-0.3105232 -0.09875,-0.4587379 C 29.845881,2.782467 29.737231,2.6605903 29.65956,2.6043284 29.5819,2.5480674 29.434748,2.4847829 29.33249,2.4635556 29.27163,2.4509226 29.212394,2.4435476 29.156698,2.4425446 Z m 0.01121,0.2745434 c 0.07847,-0.00181 0.139238,0.017465 0.240925,0.067935 0.09225,0.045787 0.189938,0.1233708 0.217113,0.1729899 0.04752,0.086804 0.01419,0.1510141 -0.874755,1.692078 -0.508148,0.8809217 -0.935359,1.6130449 -0.948991,1.6269433 -0.0137,0.013975 -0.191077,-0.071511 -0.394306,-0.1897981 -0.203227,-0.1182906 -0.37465,-0.2201997 -0.381699,-0.2262171 -0.0071,-0.00607 0.362739,-0.6613285 0.822227,-1.4567564 0.532741,-0.9222323 0.878904,-1.4841426 0.954595,-1.5506045 0.0761,-0.066816 0.175668,-0.1128148 0.278045,-0.1281671 0.03228,-0.00484 0.06071,-0.00779 0.08684,-0.0084 z M 27.028276,6.196493 27.22718,6.3085442 c 0.109476,0.061742 0.258574,0.1495528 0.331271,0.1954023 0.07269,0.045849 0.132364,0.091738 0.132364,0.1015489 0,0.00974 -0.219292,0.356616 -0.487452,0.7710996 L 26.715912,8.1301866 26.463081,7.9901155 C 26.32414,7.9130575 26.21025,7.8346963 26.21025,7.8157247 c 0,-0.018971 0.184079,-0.391276 0.409011,-0.8271295 z m -0.874753,1.9589158 c 0.01576,-0.00325 0.04274,0.0096 0.09315,0.035712 0.05771,0.029855 0.104358,0.062999 0.104358,0.073543 0,0.010583 -0.04735,0.088097 -0.105754,0.1729891 -0.0584,0.084893 -0.119857,0.1633636 -0.136571,0.1736908 -0.01672,0.010306 -0.02382,-0.056745 -0.0154,-0.1484771 0.0084,-0.091739 0.02257,-0.2026366 0.0315,-0.2465283 0.0079,-0.038339 0.01299,-0.057621 0.02871,-0.060937 z"
         id="path6949" /></g><path
       d="M 13.196728,7.4369574 H 9.3278447 V 2.0880427 h 3.8688833 v 0.9425185 h -2.49664 v 1.2367369 h 2.317026 v 0.8289144 h -2.317026 v 1.3377564 h 2.49664 z"
       style="font-weight:bold;font-size:8.37461px;-inkscape-font-specification:'sans-serif Bold';letter-spacing:-0.661458px;fill:#1a1a1a;stroke:#1a1a1a;stroke-width:1.05833;stroke-linecap:round;stroke-linejoin:round;stroke-dasharray:none"
       id="path9476"
       sodipodi:nodetypes="ccccccccccccc" /><path
       d="M 13.196728,7.4369574 H 9.3278447 V 2.0880427 h 3.8688833 v 1.0345786 h -2.49664 v 1.0125679 h 2.317026 v 1.0234097 h -2.317026 v 1.24378 h 2.49664 z"
       style="font-weight:bold;font-size:8.37461px;-inkscape-font-specification:'sans-serif Bold';letter-spacing:-0.661458px;fill:#ffffff;stroke-width:0.130341"
       id="path9469"
       sodipodi:nodetypes="ccccccccccccc" /><path
       d="M 7.3591661,7.4369574 H 5.9869126 V 3.8554477 L 4.9954415,6.1796572 H 4.0434855 L 3.0520145,3.8554477 V 7.4369574 H 1.7516067 V 2.0880427 H 3.3537666 L 4.5571825,4.7714808 5.7570063,2.0880427 h 1.6021598 z"
       style="font-weight:bold;font-size:8.37461px;-inkscape-font-specification:'sans-serif Bold';letter-spacing:-0.661458px;fill:#1a1a1a;stroke:#1a1a1a;stroke-width:1.05833336;stroke-linecap:round;stroke-linejoin:round;stroke-dasharray:none"
       id="path9474" /><path
       d="M 7.3591661,7.4369574 H 5.9869126 V 3.8554477 L 4.9954415,6.1796572 H 4.0434855 L 3.0520145,3.8554477 V 7.4369574 H 1.7516067 V 2.0880427 H 3.3537666 L 4.5571825,4.7714808 5.7570063,2.0880427 h 1.6021598 z"
       style="font-weight:bold;font-size:8.37461px;-inkscape-font-specification:'sans-serif Bold';letter-spacing:-0.661458px;fill:#ffffff;stroke-width:0.130341"
       id="path9467" /><path
       d="m 20.200941,4.7678885 q 0,0.7471957 -0.341267,1.3399229 -0.341267,0.589135 -0.862148,0.9052563 -0.39156,0.2370909 -0.858557,0.3304903 -0.466997,0.093399 -1.106425,0.093399 h -1.88595 V 2.0880427 h 1.939835 q 0.653796,0 1.127978,0.1113609 0.474182,0.1077686 0.797487,0.3089367 0.553213,0.3376749 0.869334,0.9124408 0.319713,0.5711735 0.319713,1.3471074 z m -1.426137,-0.010777 q 0,-0.5280661 -0.193984,-0.9016639 Q 18.390429,3.4782577 17.973724,3.2663128 17.761779,3.1621365 17.539057,3.1262136 17.319928,3.0866984 16.874484,3.0866984 h -0.348452 v 3.3480111 h 0.348452 q 0.492143,0 0.722049,-0.043108 0.229907,-0.046699 0.449036,-0.1652451 0.37719,-0.2155372 0.553212,-0.5747659 0.176023,-0.3628209 0.176023,-0.894479 z"
       style="font-weight:bold;font-size:8.37461px;-inkscape-font-specification:'sans-serif Bold';letter-spacing:-0.661458px;fill:#1a1a1a;stroke:#1a1a1a;stroke-width:1.05833336;stroke-linecap:round;stroke-linejoin:round;stroke-dasharray:none"
       id="path9478" /><path
       d="m 20.200941,4.7678885 q 0,0.7471957 -0.341267,1.3399229 -0.341267,0.589135 -0.862148,0.9052563 -0.39156,0.2370909 -0.858557,0.3304903 -0.466997,0.093399 -1.106425,0.093399 h -1.88595 V 2.0880427 h 1.939835 q 0.653796,0 1.127978,0.1113609 0.474182,0.1077686 0.797487,0.3089367 0.553213,0.3376749 0.869334,0.9124408 0.319713,0.5711735 0.319713,1.3471074 z m -1.426137,-0.010777 q 0,-0.5280661 -0.193984,-0.9016639 Q 18.390429,3.4782577 17.973724,3.2663128 17.761779,3.1621365 17.539057,3.1262136 17.319928,3.0866984 16.874484,3.0866984 h -0.348452 v 3.3480111 h 0.348452 q 0.492143,0 0.722049,-0.043108 0.229907,-0.046699 0.449036,-0.1652451 0.37719,-0.2155372 0.553212,-0.5747659 0.176023,-0.3628209 0.176023,-0.894479 z"
       style="font-weight:bold;font-size:8.37461px;-inkscape-font-specification:'sans-serif Bold';letter-spacing:-0.661458px;fill:#ffffff;stroke-width:0.130341"
       id="path9471" /></g></svg>
