<?xml version="1.0" encoding="UTF-8" standalone="no"?>
<!-- Created with Inkscape (http://www.inkscape.org/) -->

<svg
   width="100"
   height="36"
   viewBox="0 0 26.458333 9.5250005"
   version="1.1"
   id="svg3966"
   inkscape:version="1.2.2 (732a01da63, 2022-12-09)"
   sodipodi:docname="medpx-logo.svg"
   inkscape:export-filename="C:\Users\av1ct\Downloads\metamob-logo.png"
   inkscape:export-xdpi="1966.08"
   inkscape:export-ydpi="1966.08"
   xml:space="preserve"
   xmlns:inkscape="http://www.inkscape.org/namespaces/inkscape"
   xmlns:sodipodi="http://sodipodi.sourceforge.net/DTD/sodipodi-0.dtd"
   xmlns="http://www.w3.org/2000/svg"
   xmlns:svg="http://www.w3.org/2000/svg"><sodipodi:namedview
     id="namedview3968"
     pagecolor="#ffffff"
     bordercolor="#666666"
     borderopacity="1.0"
     inkscape:pageshadow="2"
     inkscape:pageopacity="0.0"
     inkscape:pagecheckerboard="0"
     inkscape:document-units="px"
     showgrid="false"
     units="px"
     inkscape:zoom="8.3755254"
     inkscape:cx="92.412113"
     inkscape:cy="13.014109"
     inkscape:window-width="2560"
     inkscape:window-height="1017"
     inkscape:window-x="-8"
     inkscape:window-y="-8"
     inkscape:window-maximized="1"
     inkscape:current-layer="layer1"
     inkscape:showpageshadow="2"
     inkscape:deskcolor="#d1d1d1"
     showguides="true" /><defs
     id="defs3963" /><g
     inkscape:label="Layer 1"
     inkscape:groupmode="layer"
     id="layer1"><g
       id="g4175"
       transform="matrix(0.02237498,0,0,0.02237498,7.4626585,22.390127)" /><g
       id="g4177"
       transform="matrix(0.02237498,0,0,0.02237498,7.4626585,22.390127)" /><g
       id="g4179"
       transform="matrix(0.02237498,0,0,0.02237498,7.4626585,22.390127)" /><g
       id="g4181"
       transform="matrix(0.02237498,0,0,0.02237498,7.4626585,22.390127)" /><g
       id="g4183"
       transform="matrix(0.02237498,0,0,0.02237498,7.4626585,22.390127)" /><g
       id="g4185"
       transform="matrix(0.02237498,0,0,0.02237498,7.4626585,22.390127)" /><g
       id="g4187"
       transform="matrix(0.02237498,0,0,0.02237498,7.4626585,22.390127)" /><g
       id="g4189"
       transform="matrix(0.02237498,0,0,0.02237498,7.4626585,22.390127)" /><g
       id="g4191"
       transform="matrix(0.02237498,0,0,0.02237498,7.4626585,22.390127)" /><g
       id="g4193"
       transform="matrix(0.02237498,0,0,0.02237498,7.4626585,22.390127)" /><g
       id="g4195"
       transform="matrix(0.02237498,0,0,0.02237498,7.4626585,22.390127)" /><g
       id="g4197"
       transform="matrix(0.02237498,0,0,0.02237498,7.4626585,22.390127)" /><g
       id="g4199"
       transform="matrix(0.02237498,0,0,0.02237498,7.4626585,22.390127)" /><g
       id="g4201"
       transform="matrix(0.02237498,0,0,0.02237498,7.4626585,22.390127)" /><g
       id="g4203"
       transform="matrix(0.02237498,0,0,0.02237498,7.4626585,22.390127)" /><path
       id="path3634-8"
       style="fill:#1a1a1a;stroke:#1a1a1a;stroke-width:0.52916668;stroke-linecap:round;stroke-linejoin:round;stroke-dasharray:none"
       d="m 17.577236,0.47102156 -0.152679,0.10645582 c -0.100113,0.0694043 -0.186539,0.17175014 -0.250029,0.29695416 -0.09627,0.18986016 -0.09734,0.19608806 -0.09734,0.90626996 0,0.6708434 0.0047,0.7172568 0.06864,0.7514901 0.03913,0.02094 0.316943,0.036418 0.652039,0.036418 h 0.584102 v 2.4610767 c 0,1.3538088 0.01075,2.472466 0.02382,2.4855895 0.01314,0.013127 0.722806,0.019748 1.577219,0.014708 l 1.553405,-0.00903 V 7.4151985 7.3094429 l -1.453956,-0.00903 -1.453953,-0.00917 V 4.1591351 1.0278106 l -0.08754,-0.16458536 -0.08754,-0.1645855 2.446369,0.009796 c 2.408491,0.009357 2.447914,0.0104036 2.54372,0.0819421 0.05351,0.03997 0.130218,0.1166953 0.170188,0.1701881 0.06804,0.091047 0.07334,0.15305916 0.08405,0.97420526 0.01097,0.8367052 0.01495,0.87823 0.08123,0.8992667 0.03822,0.012126 0.09232,0.00305 0.120464,-0.020309 0.04223,-0.034991 0.05113,-0.1924295 0.05113,-0.8950645 V 1.0656302 L 23.853893,0.87443094 C 23.790413,0.74922668 23.703982,0.64688104 23.603867,0.57747686 L 23.451188,0.47102114 h -2.937323 z m 0.278044,0.23952446 c 0.0324,-6.2707e-4 0.06382,8.8912e-4 0.08897,0.0056 0.06701,0.0125631 0.176759,0.0707711 0.243728,0.12956612 0.06767,0.059412 0.137629,0.16487556 0.15758,0.23672266 0.01974,0.071105 0.03561,0.3711055 0.03572,0.6667462 l 7e-4,0.5371787 h -0.513366 -0.513367 l 0.01116,-0.6499373 0.01042,-0.64993726 0.102949,-0.1071559 c 0.05651,-0.058928 0.156799,-0.12461435 0.222717,-0.14636972 0.04121,-0.0135938 0.09867,-0.0213668 0.152679,-0.0224115 z m 2.651577,0.51896908 c -0.355185,-6.966e-4 -0.39934,0.00667 -0.432124,0.067935 -0.02294,0.042874 -0.03641,0.4817635 -0.03641,1.1829135 0,0.7011504 0.01341,1.140038 0.03641,1.1829139 0.02008,0.037498 0.06455,0.068634 0.09875,0.068634 0.03422,0 0.08109,-0.019458 0.104358,-0.042723 0.02901,-0.029088 0.04273,-0.2050485 0.04273,-0.5637926 V 2.603628 h 0.100146 c 0.240471,0.00867 0.410903,-0.0119 0.595311,-0.05393 0.07244,-0.030266 0.169966,-0.089674 0.216412,-0.1323681 0.04645,-0.042692 0.113393,-0.1416683 0.149176,-0.2192137 0.03578,-0.077547 0.0654,-0.2005212 0.06583,-0.2738419 4.32e-4,-0.07332 -0.02392,-0.1922252 -0.05392,-0.2640363 -0.03001,-0.071811 -0.08967,-0.1685707 -0.132365,-0.2150121 -0.0427,-0.046442 -0.140952,-0.1140881 -0.218504,-0.1498777 -0.110108,-0.050814 -0.227083,-0.065229 -0.53578,-0.065835 z m -0.186296,0.2465281 h 0.229719 c 0.126633,0 0.28271,0.021595 0.346678,0.048325 0.06398,0.026731 0.150574,0.092247 0.192603,0.1456755 0.04915,0.062515 0.07703,0.1468796 0.07703,0.236723 0,0.076786 -0.02609,0.1829726 -0.05743,0.2360224 -0.03134,0.05305 -0.09103,0.1181309 -0.132364,0.1442749 -0.04136,0.026143 -0.205653,0.054414 -0.365591,0.063034 L 20.320559,2.365504 V 1.9207741 Z m 4.602787,0.9665015 c -0.05569,-10e-4 -0.107926,0.00402 -0.155482,0.014708 -0.0799,0.017952 -0.215017,0.07389 -0.300455,0.1239637 -0.09148,0.053616 -0.199105,0.1599059 -0.261935,0.2591343 -0.05868,0.092673 -0.454845,0.7712037 -0.880358,1.5078825 -0.425512,0.7366787 -0.800087,1.3905115 -0.832032,1.4525536 -0.03195,0.062041 -0.05814,0.1202961 -0.05814,0.129566 0,0.00932 0.02707,0.043886 0.06023,0.077044 0.05686,0.056858 0.03434,0.1122065 -0.40411,0.9805084 l -0.465041,0.9202782 -0.04131,0.5161683 c -0.02285,0.2836486 -0.03166,0.5415182 -0.0196,0.5728973 0.012,0.031382 0.05368,0.05673 0.09246,0.05673 0.03876,0 0.258461,-0.1341983 0.488154,-0.2983544 0.229693,-0.1641611 0.442666,-0.3268387 0.473445,-0.3613885 0.03077,-0.034556 0.287667,-0.4196529 0.570796,-0.8558439 0.489517,-0.7541635 0.520258,-0.7928112 0.624722,-0.7928112 0.107593,0 0.126592,-0.029516 0.932186,-1.4245383 0.452398,-0.7834067 0.834927,-1.4366225 0.850241,-1.4518531 0.0153,-0.015231 0.0634,-0.00138 0.106452,0.031517 l 0.07774,0.060231 -0.371193,0.643634 c -0.236075,0.4091898 -0.367169,0.6727053 -0.359986,0.7227748 0.0067,0.047827 0.03937,0.082657 0.08334,0.088946 0.03984,0.00571 0.09702,-0.017748 0.126759,-0.052527 0.02974,-0.03478 0.231173,-0.3703762 0.447532,-0.7451868 0.21636,-0.3748103 0.392904,-0.7039973 0.392904,-0.7318796 0,-0.027883 -0.07531,-0.098477 -0.167385,-0.1568815 L 25.765898,3.6233567 V 3.3341069 c 0,-0.2540892 -0.01171,-0.3105232 -0.09875,-0.4587379 -0.0546,-0.092902 -0.16325,-0.2147787 -0.240921,-0.2710406 -0.07766,-0.056261 -0.224812,-0.1195455 -0.32707,-0.1407728 -0.06086,-0.012633 -0.120096,-0.020008 -0.175792,-0.021011 z m -3.141129,0.090348 c -0.02664,0 -0.153604,0.1350092 -0.282247,0.2997554 l -0.233923,0.299754 -0.190497,-0.244427 c -0.0037,-0.00496 -0.0073,-0.00909 -0.01116,-0.014003 -0.04651,-0.034454 -0.09319,-0.1377138 -0.129131,-0.1635026 -0.08223,-0.059016 -0.229607,-0.044278 -0.208213,0.097914 0.0091,0.060044 0.08275,0.1488909 0.141943,0.2392782 l 0.233226,0.299756 -0.250031,0.3270697 c -0.137501,0.1797641 -0.250028,0.3425001 -0.250028,0.3613873 0,0.018888 0.02013,0.053735 0.0441,0.077739 0.02401,0.024011 0.07508,0.039203 0.113462,0.033619 0.03839,-0.00559 0.160751,-0.1292795 0.272441,-0.2745429 0.111698,-0.1452633 0.215294,-0.2681002 0.230419,-0.2731419 0.01513,-0.00503 0.122694,0.1176326 0.238824,0.2724414 0.151741,0.2022839 0.233146,0.2817947 0.289251,0.2822465 0.04294,3.455e-4 0.09478,-0.030432 0.114859,-0.067935 0.03052,-0.057017 -2.06e-4,-0.1163001 -0.186297,-0.3613871 -0.122384,-0.1612069 -0.235001,-0.3131247 -0.250016,-0.338276 -0.01754,-0.029388 0.04763,-0.1427914 0.182093,-0.3172646 0.115087,-0.1493254 0.227751,-0.3065083 0.250031,-0.3487811 0.03249,-0.061598 0.02964,-0.088035 -0.01469,-0.1323681 -0.03043,-0.030426 -0.07771,-0.055329 -0.104357,-0.055329 z m 3.152335,0.1841954 c 0.07847,-0.00181 0.139238,0.017465 0.240925,0.067935 0.09225,0.045787 0.189938,0.1233708 0.217113,0.1729899 0.04752,0.086804 0.01419,0.1510141 -0.874755,1.692078 -0.508148,0.8809217 -0.935359,1.6130449 -0.948991,1.6269433 -0.0137,0.013975 -0.191077,-0.071511 -0.394306,-0.1897981 -0.203227,-0.1182906 -0.37465,-0.2201997 -0.381699,-0.2262171 -0.0071,-0.00607 0.362739,-0.6613285 0.822227,-1.4567564 0.532741,-0.9222323 0.878904,-1.4841426 0.954595,-1.5506045 0.0761,-0.066816 0.175668,-0.1128148 0.278045,-0.1281671 0.03228,-0.00484 0.06071,-0.00779 0.08684,-0.0084 z m -4.837409,2.1480143 c -0.661832,4.785e-4 -0.80529,0.012451 -0.832732,0.045524 -0.02352,0.028338 -0.03221,0.083561 -0.0196,0.1232648 0.02265,0.071413 0.04047,0.072139 1.69558,0.072139 1.516374,0 1.675521,-0.00515 1.695579,-0.05743 0.01214,-0.031715 0.0058,-0.082869 -0.01397,-0.1141601 -0.03204,-0.05081 -0.211174,-0.058363 -1.675271,-0.066535 -0.350753,-0.00196 -0.628929,-0.00295 -0.849539,-0.00279 z m 0.628225,0.9286818 c -1.303154,0 -1.44068,0.00559 -1.474265,0.05883 -0.02682,0.042616 -0.02452,0.073642 0.0091,0.1141545 0.04086,0.049235 0.213539,0.056024 1.46516,0.056024 1.251622,0 1.424286,-0.00678 1.465162,-0.056024 0.03369,-0.040513 0.0367,-0.071539 0.0098,-0.1141545 -0.03356,-0.053242 -0.171799,-0.05883 -1.474953,-0.05883 z m 2.069573,0.4027088 0.198904,0.1120512 c 0.109476,0.061742 0.258574,0.1495528 0.331271,0.1954023 0.07269,0.045849 0.132364,0.091738 0.132364,0.1015489 0,0.00974 -0.219292,0.356616 -0.487452,0.7710996 L 22.482579,8.1301866 22.229748,7.9901155 c -0.138941,-0.077058 -0.252831,-0.1554192 -0.252831,-0.1743908 0,-0.018971 0.184079,-0.391276 0.409011,-0.8271295 z m 1.013426,0.7893085 c -0.01116,5.817e-4 -0.02228,0.00241 -0.03221,0.00565 -0.05441,0.017264 -0.07213,0.053117 -0.07213,0.1449764 0,0.096129 -0.01746,0.1287643 -0.08405,0.1540796 -0.04642,0.017659 -0.09246,0.052962 -0.101553,0.078441 -0.0091,0.025494 -0.002,0.073924 0.0154,0.1078589 0.02362,0.045918 0.07562,0.061629 0.203107,0.061629 0.123626,0 0.177149,-0.015782 0.192599,-0.056025 0.01185,-0.03066 0.021,-0.1396618 0.021,-0.242326 0,-0.1201819 -0.01819,-0.2016725 -0.05113,-0.229019 -0.02112,-0.017518 -0.05737,-0.026961 -0.09105,-0.025211 z M 21.92019,8.1554088 c 0.01576,-0.00325 0.04274,0.0096 0.09315,0.035712 0.05771,0.029855 0.104358,0.062999 0.104358,0.073543 0,0.010583 -0.04735,0.088097 -0.105754,0.1729891 -0.0584,0.084893 -0.119857,0.1633636 -0.136571,0.1736908 -0.01672,0.010306 -0.02382,-0.056745 -0.0154,-0.1484771 0.0084,-0.091739 0.02257,-0.2026366 0.0315,-0.2465283 0.0079,-0.038339 0.01299,-0.057621 0.02871,-0.060937 z"
       sodipodi:nodetypes="cccscscscccccccccccccccccsccccccsssscccccccssccscscsccccccsccccsccsssccccssccssscccccssccsssccccccssccscccssccccsscccscccssssssscsssscscscsssssccssssssccsccscccscccsccscssccscscssssccccsccc" /><path
       id="path3634"
       style="fill:#ffffff;stroke-width:0.0352478"
       d="m 17.577236,0.47102156 -0.152679,0.10645582 c -0.100113,0.0694043 -0.186539,0.17175014 -0.250029,0.29695416 -0.09627,0.18986016 -0.09734,0.19608806 -0.09734,0.90626996 0,0.6708434 0.0047,0.7172568 0.06864,0.7514901 0.03913,0.02094 0.316943,0.036418 0.652039,0.036418 h 0.584102 v 2.4610767 c 0,1.3538088 0.01075,2.472466 0.02382,2.4855895 0.01314,0.013127 0.722806,0.019748 1.577219,0.014708 l 1.553405,-0.00903 V 7.4151985 7.3094429 l -1.453956,-0.00903 -1.453953,-0.00917 V 4.1591351 1.0278106 l -0.08754,-0.16458536 -0.08754,-0.1645855 2.446369,0.009796 c 2.408491,0.009357 2.447914,0.0104036 2.54372,0.0819421 0.05351,0.03997 0.130218,0.1166953 0.170188,0.1701881 0.06804,0.091047 0.07334,0.15305916 0.08405,0.97420526 0.01097,0.8367052 0.01495,0.87823 0.08123,0.8992667 0.03822,0.012126 0.09232,0.00305 0.120464,-0.020309 0.04223,-0.034991 0.05113,-0.1924295 0.05113,-0.8950645 V 1.0656302 L 23.853893,0.87443094 C 23.790413,0.74922668 23.703982,0.64688104 23.603867,0.57747686 L 23.451188,0.47102114 h -2.937323 z m 0.278044,0.23952446 c 0.0324,-6.2707e-4 0.06382,8.8912e-4 0.08897,0.0056 0.06701,0.0125631 0.176759,0.0707711 0.243728,0.12956612 0.06767,0.059412 0.137629,0.16487556 0.15758,0.23672266 0.01974,0.071105 0.03561,0.3711055 0.03572,0.6667462 l 7e-4,0.5371787 h -0.513366 -0.513367 l 0.01116,-0.6499373 0.01042,-0.64993726 0.102949,-0.1071559 c 0.05651,-0.058928 0.156799,-0.12461435 0.222717,-0.14636972 0.04121,-0.0135938 0.09867,-0.0213668 0.152679,-0.0224115 z m 2.651577,0.51896908 c -0.355185,-6.966e-4 -0.39934,0.00667 -0.432124,0.067935 -0.02294,0.042874 -0.03641,0.4817635 -0.03641,1.1829135 0,0.7011504 0.01341,1.140038 0.03641,1.1829139 0.02008,0.037498 0.06455,0.068634 0.09875,0.068634 0.03422,0 0.08109,-0.019458 0.104358,-0.042723 0.02901,-0.029088 0.04273,-0.2050485 0.04273,-0.5637926 V 2.603628 h 0.100146 c 0.240471,0.00867 0.410903,-0.0119 0.595311,-0.05393 0.07244,-0.030266 0.169966,-0.089674 0.216412,-0.1323681 0.04645,-0.042692 0.113393,-0.1416683 0.149176,-0.2192137 0.03578,-0.077547 0.0654,-0.2005212 0.06583,-0.2738419 4.32e-4,-0.07332 -0.02392,-0.1922252 -0.05392,-0.2640363 -0.03001,-0.071811 -0.08967,-0.1685707 -0.132365,-0.2150121 -0.0427,-0.046442 -0.140952,-0.1140881 -0.218504,-0.1498777 -0.110108,-0.050814 -0.227083,-0.065229 -0.53578,-0.065835 z m -0.186296,0.2465281 h 0.229719 c 0.126633,0 0.28271,0.021595 0.346678,0.048325 0.06398,0.026731 0.150574,0.092247 0.192603,0.1456755 0.04915,0.062515 0.07703,0.1468796 0.07703,0.236723 0,0.076786 -0.02609,0.1829726 -0.05743,0.2360224 -0.03134,0.05305 -0.09103,0.1181309 -0.132364,0.1442749 -0.04136,0.026143 -0.205653,0.054414 -0.365591,0.063034 L 20.320559,2.365504 V 1.9207741 Z m 4.602787,0.9665015 c -0.05569,-10e-4 -0.107926,0.00402 -0.155482,0.014708 -0.0799,0.017952 -0.215017,0.07389 -0.300455,0.1239637 -0.09148,0.053616 -0.199105,0.1599059 -0.261935,0.2591343 -0.05868,0.092673 -0.454845,0.7712037 -0.880358,1.5078825 -0.425512,0.7366787 -0.800087,1.3905115 -0.832032,1.4525536 -0.03195,0.062041 -0.05814,0.1202961 -0.05814,0.129566 0,0.00932 0.02707,0.043886 0.06023,0.077044 0.05686,0.056858 0.03434,0.1122065 -0.40411,0.9805084 l -0.465041,0.9202782 -0.04131,0.5161683 c -0.02285,0.2836486 -0.03166,0.5415182 -0.0196,0.5728973 0.012,0.031382 0.05368,0.05673 0.09246,0.05673 0.03876,0 0.258461,-0.1341983 0.488154,-0.2983544 0.229693,-0.1641611 0.442666,-0.3268387 0.473445,-0.3613885 0.03077,-0.034556 0.287667,-0.4196529 0.570796,-0.8558439 0.489517,-0.7541635 0.520258,-0.7928112 0.624722,-0.7928112 0.107593,0 0.126592,-0.029516 0.932186,-1.4245383 0.452398,-0.7834067 0.834927,-1.4366225 0.850241,-1.4518531 0.0153,-0.015231 0.0634,-0.00138 0.106452,0.031517 l 0.07774,0.060231 -0.371193,0.643634 c -0.236075,0.4091898 -0.367169,0.6727053 -0.359986,0.7227748 0.0067,0.047827 0.03937,0.082657 0.08334,0.088946 0.03984,0.00571 0.09702,-0.017748 0.126759,-0.052527 0.02974,-0.03478 0.231173,-0.3703762 0.447532,-0.7451868 0.21636,-0.3748103 0.392904,-0.7039973 0.392904,-0.7318796 0,-0.027883 -0.07531,-0.098477 -0.167385,-0.1568815 L 25.765898,3.6233567 V 3.3341069 c 0,-0.2540892 -0.01171,-0.3105232 -0.09875,-0.4587379 -0.0546,-0.092902 -0.16325,-0.2147787 -0.240921,-0.2710406 -0.07766,-0.056261 -0.224812,-0.1195455 -0.32707,-0.1407728 -0.06086,-0.012633 -0.120096,-0.020008 -0.175792,-0.021011 z m -3.141129,0.090348 c -0.02664,0 -0.153604,0.1350092 -0.282247,0.2997554 l -0.233923,0.299754 -0.190497,-0.244427 c -0.0037,-0.00496 -0.0073,-0.00909 -0.01116,-0.014003 -0.04651,-0.034454 -0.09319,-0.1377138 -0.129131,-0.1635026 -0.08223,-0.059016 -0.229607,-0.044278 -0.208213,0.097914 0.0091,0.060044 0.08275,0.1488909 0.141943,0.2392782 l 0.233226,0.299756 -0.250031,0.3270697 c -0.137501,0.1797641 -0.250028,0.3425001 -0.250028,0.3613873 0,0.018888 0.02013,0.053735 0.0441,0.077739 0.02401,0.024011 0.07508,0.039203 0.113462,0.033619 0.03839,-0.00559 0.160751,-0.1292795 0.272441,-0.2745429 0.111698,-0.1452633 0.215294,-0.2681002 0.230419,-0.2731419 0.01513,-0.00503 0.122694,0.1176326 0.238824,0.2724414 0.151741,0.2022839 0.233146,0.2817947 0.289251,0.2822465 0.04294,3.455e-4 0.09478,-0.030432 0.114859,-0.067935 0.03052,-0.057017 -2.06e-4,-0.1163001 -0.186297,-0.3613871 -0.122384,-0.1612069 -0.235001,-0.3131247 -0.250016,-0.338276 -0.01754,-0.029388 0.04763,-0.1427914 0.182093,-0.3172646 0.115087,-0.1493254 0.227751,-0.3065083 0.250031,-0.3487811 0.03249,-0.061598 0.02964,-0.088035 -0.01469,-0.1323681 -0.03043,-0.030426 -0.07771,-0.055329 -0.104357,-0.055329 z m 3.152335,0.1841954 c 0.07847,-0.00181 0.139238,0.017465 0.240925,0.067935 0.09225,0.045787 0.189938,0.1233708 0.217113,0.1729899 0.04752,0.086804 0.01419,0.1510141 -0.874755,1.692078 -0.508148,0.8809217 -0.935359,1.6130449 -0.948991,1.6269433 -0.0137,0.013975 -0.191077,-0.071511 -0.394306,-0.1897981 -0.203227,-0.1182906 -0.37465,-0.2201997 -0.381699,-0.2262171 -0.0071,-0.00607 0.362739,-0.6613285 0.822227,-1.4567564 0.532741,-0.9222323 0.878904,-1.4841426 0.954595,-1.5506045 0.0761,-0.066816 0.175668,-0.1128148 0.278045,-0.1281671 0.03228,-0.00484 0.06071,-0.00779 0.08684,-0.0084 z m -4.837409,2.1480143 c -0.661832,4.785e-4 -0.80529,0.012451 -0.832732,0.045524 -0.02352,0.028338 -0.03221,0.083561 -0.0196,0.1232648 0.02265,0.071413 0.04047,0.072139 1.69558,0.072139 1.516374,0 1.675521,-0.00515 1.695579,-0.05743 0.01214,-0.031715 0.0058,-0.082869 -0.01397,-0.1141601 -0.03204,-0.05081 -0.211174,-0.058363 -1.675271,-0.066535 -0.350753,-0.00196 -0.628929,-0.00295 -0.849539,-0.00279 z m 0.628225,0.9286818 c -1.303154,0 -1.44068,0.00559 -1.474265,0.05883 -0.02682,0.042616 -0.02452,0.073642 0.0091,0.1141545 0.04086,0.049235 0.213539,0.056024 1.46516,0.056024 1.251622,0 1.424286,-0.00678 1.465162,-0.056024 0.03369,-0.040513 0.0367,-0.071539 0.0098,-0.1141545 -0.03356,-0.053242 -0.171799,-0.05883 -1.474953,-0.05883 z m 2.069573,0.4027088 0.198904,0.1120512 c 0.109476,0.061742 0.258574,0.1495528 0.331271,0.1954023 0.07269,0.045849 0.132364,0.091738 0.132364,0.1015489 0,0.00974 -0.219292,0.356616 -0.487452,0.7710996 L 22.482579,8.1301866 22.229748,7.9901155 c -0.138941,-0.077058 -0.252831,-0.1554192 -0.252831,-0.1743908 0,-0.018971 0.184079,-0.391276 0.409011,-0.8271295 z m 1.013426,0.7893085 c -0.01116,5.817e-4 -0.02228,0.00241 -0.03221,0.00565 -0.05441,0.017264 -0.07213,0.053117 -0.07213,0.1449764 0,0.096129 -0.01746,0.1287643 -0.08405,0.1540796 -0.04642,0.017659 -0.09246,0.052962 -0.101553,0.078441 -0.0091,0.025494 -0.002,0.073924 0.0154,0.1078589 0.02362,0.045918 0.07562,0.061629 0.203107,0.061629 0.123626,0 0.177149,-0.015782 0.192599,-0.056025 0.01185,-0.03066 0.021,-0.1396618 0.021,-0.242326 0,-0.1201819 -0.01819,-0.2016725 -0.05113,-0.229019 -0.02112,-0.017518 -0.05737,-0.026961 -0.09105,-0.025211 z M 21.92019,8.1554088 c 0.01576,-0.00325 0.04274,0.0096 0.09315,0.035712 0.05771,0.029855 0.104358,0.062999 0.104358,0.073543 0,0.010583 -0.04735,0.088097 -0.105754,0.1729891 -0.0584,0.084893 -0.119857,0.1633636 -0.136571,0.1736908 -0.01672,0.010306 -0.02382,-0.056745 -0.0154,-0.1484771 0.0084,-0.091739 0.02257,-0.2026366 0.0315,-0.2465283 0.0079,-0.038339 0.01299,-0.057621 0.02871,-0.060937 z"
       sodipodi:nodetypes="cccscscscccccccccccccccccsccccccsssscccccccssccscscsccccccsccccsccsssccccssccssscccccssccsssccccccssccscccssccccsscccscccssssssscsssscscscsssssccssssssccsccscccscccsccscssccscscssssccccsccc" /><g
       id="g3843"><path
         d="M 11.087004,7.4369574 H 7.2181114 V 2.0880427 H 11.087004 V 3.1226213 H 8.5903648 V 4.045839 H 10.90739 V 5.0804175 H 8.5903648 v 1.3219614 h 2.4966392 z"
         style="font-weight:bold;font-size:8.37461px;-inkscape-font-specification:'sans-serif Bold';letter-spacing:-0.661458px;fill:#1a1a1a;stroke:#1a1a1a;stroke-width:0.661458;stroke-linecap:round;stroke-linejoin:round;stroke-dasharray:none"
         id="path9476" /><path
         d="M 11.087004,7.4369574 H 7.2181114 V 2.0880427 H 11.087004 V 3.1226213 H 8.5903648 V 4.045839 H 10.90739 V 5.0804175 H 8.5903648 v 1.3219614 h 2.4966392 z"
         style="font-weight:bold;font-size:8.37461px;-inkscape-font-specification:'sans-serif Bold';letter-spacing:-0.661458px;fill:#ffffff;stroke-width:0.130341"
         id="path9469" /></g><g
       id="g3847"
       transform="translate(-0.12636024)"><path
         d="M 6.4341264,7.4369574 H 5.0618729 V 3.8554477 L 4.0704018,6.1796572 H 3.1184458 L 2.1269748,3.8554477 V 7.4369574 H 0.82656705 V 2.0880427 H 2.4287269 L 3.6321428,4.7714808 4.8319666,2.0880427 h 1.6021598 z"
         style="font-weight:bold;font-size:8.37461px;-inkscape-font-specification:'sans-serif Bold';letter-spacing:-0.661458px;fill:#1a1a1a;stroke:#1a1a1a;stroke-width:0.661458;stroke-linecap:round;stroke-linejoin:round;stroke-dasharray:none"
         id="path9474" /><path
         d="M 6.4341264,7.4369574 H 5.0618729 V 3.8554477 L 4.0704018,6.1796572 H 3.1184458 L 2.1269748,3.8554477 V 7.4369574 H 0.82656705 V 2.0880427 H 2.4287269 L 3.6321428,4.7714808 4.8319666,2.0880427 h 1.6021598 z"
         style="font-weight:bold;font-size:8.37461px;-inkscape-font-specification:'sans-serif Bold';letter-spacing:-0.661458px;fill:#ffffff;stroke-width:0.130341"
         id="path9467" /></g><g
       id="g3851"
       transform="translate(0.3159006)"><path
         d="m 16.716983,4.7678885 q 0,0.7471957 -0.341267,1.3399229 -0.341267,0.589135 -0.862148,0.9052563 -0.39156,0.2370909 -0.858557,0.3304903 -0.466997,0.093399 -1.106425,0.093399 h -1.88595 V 2.0880427 h 1.939835 q 0.653796,0 1.127978,0.1113609 0.474182,0.1077686 0.797487,0.3089367 0.553213,0.3376749 0.869334,0.9124408 0.319713,0.5711735 0.319713,1.3471074 z m -1.426137,-0.010777 q 0,-0.5280661 -0.193984,-0.9016639 Q 14.906471,3.4782577 14.489766,3.2663128 14.277821,3.1621365 14.055099,3.1262136 13.83597,3.0866984 13.390526,3.0866984 h -0.348452 v 3.3480111 h 0.348452 q 0.492143,0 0.722049,-0.043108 0.229907,-0.046699 0.449036,-0.1652451 0.37719,-0.2155372 0.553212,-0.5747659 0.176023,-0.3628209 0.176023,-0.894479 z"
         style="font-weight:bold;font-size:8.37461px;-inkscape-font-specification:'sans-serif Bold';letter-spacing:-0.661458px;fill:#1a1a1a;stroke:#1a1a1a;stroke-width:0.661458;stroke-linecap:round;stroke-linejoin:round;stroke-dasharray:none"
         id="path9478" /><path
         d="m 16.716983,4.7678885 q 0,0.7471957 -0.341267,1.3399229 -0.341267,0.589135 -0.862148,0.9052563 -0.39156,0.2370909 -0.858557,0.3304903 -0.466997,0.093399 -1.106425,0.093399 h -1.88595 V 2.0880427 h 1.939835 q 0.653796,0 1.127978,0.1113609 0.474182,0.1077686 0.797487,0.3089367 0.553213,0.3376749 0.869334,0.9124408 0.319713,0.5711735 0.319713,1.3471074 z m -1.426137,-0.010777 q 0,-0.5280661 -0.193984,-0.9016639 Q 14.906471,3.4782577 14.489766,3.2663128 14.277821,3.1621365 14.055099,3.1262136 13.83597,3.0866984 13.390526,3.0866984 h -0.348452 v 3.3480111 h 0.348452 q 0.492143,0 0.722049,-0.043108 0.229907,-0.046699 0.449036,-0.1652451 0.37719,-0.2155372 0.553212,-0.5747659 0.176023,-0.3628209 0.176023,-0.894479 z"
         style="font-weight:bold;font-size:8.37461px;-inkscape-font-specification:'sans-serif Bold';letter-spacing:-0.661458px;fill:#ffffff;stroke-width:0.130341"
         id="path9471" /></g></g></svg>
